<svg xmlns="http://www.w3.org/2000/svg" width="150" height="27" fill="none" viewBox="0 0 150 27">
  <g clip-path="url(#a)">
    <path fill="#656D72" d="M75.696 18h-1.398l3.14-8.727h1.522L82.1 18h-1.397l-2.467-7.142h-.068L75.696 18Zm.234-3.418h4.534v1.108H75.93v-1.108ZM85.361 18V9.273h1.274v3.243h.077a3.57 3.57 0 0 1 .32-.473c.139-.18.332-.336.58-.47.246-.136.573-.204.98-.204.528 0 1 .134 1.414.4.415.268.74.653.976 1.156.239.503.358 1.108.358 1.815 0 .707-.118 1.314-.354 1.82-.236.503-.56.89-.971 1.163-.412.27-.883.405-1.411.405-.398 0-.723-.067-.976-.2a1.848 1.848 0 0 1-.588-.47 3.553 3.553 0 0 1-.328-.476h-.106V18H85.36Zm1.249-3.273c0 .46.067.864.2 1.21.133.347.327.618.58.814.252.194.562.29.928.29.381 0 .7-.1.955-.302.256-.205.449-.482.58-.831a3.3 3.3 0 0 0 .2-1.18c0-.432-.065-.82-.196-1.164a1.781 1.781 0 0 0-.58-.814c-.255-.199-.575-.298-.959-.298-.369 0-.681.095-.937.285-.253.19-.445.456-.575.797a3.34 3.34 0 0 0-.196 1.193Zm10.918 3.405c-.614 0-1.15-.14-1.607-.422a2.845 2.845 0 0 1-1.065-1.18c-.253-.506-.38-1.097-.38-1.773 0-.679.127-1.273.38-1.781a2.839 2.839 0 0 1 1.065-1.185c.458-.281.993-.422 1.607-.422.613 0 1.149.14 1.606.422.458.281.813.676 1.066 1.185.252.508.379 1.102.379 1.781 0 .676-.127 1.267-.379 1.773a2.845 2.845 0 0 1-1.066 1.18c-.457.281-.993.422-1.606.422Zm.004-1.07c.398 0 .727-.105.989-.315.261-.21.454-.49.58-.84.127-.349.19-.734.19-1.154a3.34 3.34 0 0 0-.19-1.15 1.874 1.874 0 0 0-.58-.849c-.262-.213-.591-.32-.989-.32-.4 0-.733.107-.997.32a1.903 1.903 0 0 0-.584.848c-.125.35-.188.733-.188 1.15 0 .421.063.806.188 1.156.128.35.322.629.584.84.264.21.596.314.997.314Zm10.615-1.777v-3.83h1.279V18h-1.253v-1.134h-.068c-.151.35-.392.641-.725.874-.329.23-.74.345-1.231.345-.421 0-.793-.092-1.117-.277a1.94 1.94 0 0 1-.758-.83c-.182-.367-.273-.82-.273-1.36v-4.164h1.274v4.01c0 .447.124.802.371 1.066s.568.396.963.396a1.568 1.568 0 0 0 1.304-.72c.159-.242.237-.548.234-.92Zm8.046-3.83v1.022h-3.575v-1.023h3.575Zm-2.616-1.569h1.274v6.192c0 .247.037.433.111.558a.58.58 0 0 0 .285.252c.119.042.249.064.388.064.102 0 .192-.007.268-.022a6.69 6.69 0 0 0 .179-.034l.23 1.053a2.494 2.494 0 0 1-.826.136 2.247 2.247 0 0 1-.938-.179 1.612 1.612 0 0 1-.703-.58c-.179-.26-.268-.589-.268-.984V9.886Zm11.304-.613h1.598l2.778 6.784h.102l2.779-6.784h1.598V18h-1.253v-6.315h-.081l-2.574 6.302h-1.04l-2.574-6.307h-.08V18h-1.253V9.273Zm15.488 8.86c-.645 0-1.2-.139-1.666-.414a2.806 2.806 0 0 1-1.074-1.172c-.25-.506-.375-1.098-.375-1.777 0-.67.125-1.261.375-1.773.253-.511.605-.91 1.057-1.197.454-.287.986-.43 1.593-.43.37 0 .728.06 1.074.183.347.122.658.313.934.575.275.261.492.6.652 1.018.159.415.238.92.238 1.513v.452h-5.203v-.955h3.955c0-.335-.069-.632-.205-.89a1.545 1.545 0 0 0-.575-.618 1.61 1.61 0 0 0-.861-.226c-.358 0-.67.088-.938.264-.264.173-.468.4-.613.682a1.969 1.969 0 0 0-.213.908v.745c0 .438.076.81.23 1.117.156.307.373.541.652.703.278.159.604.238.976.238.241 0 .461-.034.66-.102a1.359 1.359 0 0 0 .848-.831l1.206.218c-.096.355-.27.666-.52.933-.247.264-.558.47-.933.618a3.492 3.492 0 0 1-1.274.217Z"/>
    <path fill="#8C8C8C" d="M18 14h44v2H18z"/>
  </g>
  <defs>
    <clipPath id="a">
      <path fill="#fff" d="M0 0h150v27H0z"/>
    </clipPath>
  </defs>
</svg>
