<svg xmlns="http://www.w3.org/2000/svg" width="154" height="24" fill="none" viewBox="0 0 154 24">
  <path fill="#656D72" d="M64.207 10.11h-1.33a2.032 2.032 0 0 0-.796-1.299 2.203 2.203 0 0 0-.678-.34 2.645 2.645 0 0 0-.788-.116c-.503 0-.953.127-1.35.38-.396.252-.708.623-.938 1.112-.228.488-.341 1.085-.341 1.79 0 .71.113 1.309.34 1.798.23.488.545.858.943 1.108.397.25.845.375 1.342.375.275 0 .537-.037.784-.111.25-.077.476-.19.677-.337a2.038 2.038 0 0 0 .805-1.283l1.33.005a3.559 3.559 0 0 1-.413 1.184 3.269 3.269 0 0 1-.78.93 3.525 3.525 0 0 1-1.082.6c-.406.142-.85.213-1.33.213-.755 0-1.429-.179-2.02-.537-.59-.36-1.056-.876-1.397-1.546-.338-.67-.507-1.47-.507-2.4 0-.931.17-1.731.51-2.399.342-.67.808-1.184 1.399-1.542.59-.361 1.262-.542 2.015-.542.463 0 .895.067 1.296.2.403.131.765.325 1.086.58.321.253.587.563.797.93.21.363.352.779.426 1.248Zm6.23 6.022c-.613 0-1.148-.14-1.606-.422a2.844 2.844 0 0 1-1.065-1.18c-.253-.506-.38-1.097-.38-1.773 0-.679.127-1.273.38-1.781a2.838 2.838 0 0 1 1.065-1.185c.458-.281.993-.422 1.607-.422s1.149.14 1.606.422c.458.281.813.676 1.066 1.185.253.508.379 1.102.379 1.781 0 .676-.126 1.267-.38 1.773a2.83 2.83 0 0 1-1.065 1.18c-.457.281-.992.422-1.606.422Zm.005-1.07c.398 0 .727-.105.989-.315.261-.21.454-.49.58-.84a3.34 3.34 0 0 0 .191-1.154c0-.418-.064-.801-.192-1.15a1.874 1.874 0 0 0-.58-.849c-.26-.213-.59-.32-.988-.32-.4 0-.733.107-.997.32a1.903 1.903 0 0 0-.584.848c-.125.35-.187.733-.187 1.15 0 .421.062.806.187 1.156.128.35.323.629.584.84.264.21.597.315.997.315Zm7.743-2.948V16h-1.274V9.455h1.223v1.065h.081c.15-.347.387-.625.708-.835.323-.21.731-.316 1.223-.316.446 0 .836.094 1.171.282.336.184.596.46.78.826.185.367.277.82.277 1.36V16H81.1v-4.01c0-.474-.123-.845-.37-1.112-.248-.27-.587-.405-1.02-.405-.294 0-.557.064-.787.192a1.378 1.378 0 0 0-.542.562c-.13.245-.196.54-.196.887Zm10.953-2.66v1.023h-3.575V9.455h3.575Zm-2.616-1.568h1.274v6.192c0 .247.037.433.111.558a.578.578 0 0 0 .285.252c.12.042.25.064.388.064.103 0 .192-.007.269-.022l.179-.034.23 1.053a2.497 2.497 0 0 1-.827.136 2.243 2.243 0 0 1-.937-.179 1.608 1.608 0 0 1-.704-.58c-.178-.26-.268-.589-.268-.984V7.886Zm7.93 8.259c-.414 0-.789-.077-1.124-.23a1.895 1.895 0 0 1-.797-.678c-.193-.295-.29-.658-.29-1.086 0-.37.071-.674.213-.912.142-.239.334-.428.576-.567.241-.14.51-.244.81-.316.297-.07.601-.124.911-.161l.955-.111c.244-.031.421-.081.532-.15.111-.067.166-.178.166-.332v-.03c0-.372-.105-.66-.315-.865-.207-.204-.517-.306-.929-.306-.429 0-.767.095-1.014.285a1.528 1.528 0 0 0-.507.627l-1.198-.273c.142-.398.35-.719.623-.963.275-.247.592-.426.95-.537a3.71 3.71 0 0 1 1.13-.17c.26 0 .537.03.83.093.295.06.571.17.827.332.258.162.47.394.635.695.164.298.247.686.247 1.163V16h-1.244v-.895h-.052a1.812 1.812 0 0 1-.37.486 1.977 1.977 0 0 1-.635.396 2.463 2.463 0 0 1-.93.158Zm.278-1.023c.352 0 .653-.07.903-.209.253-.139.445-.32.576-.545.133-.227.2-.47.2-.729v-.843a.665.665 0 0 1-.265.127 4.11 4.11 0 0 1-.438.098l-.482.073-.392.05a3.153 3.153 0 0 0-.677.159c-.202.073-.364.18-.486.32-.12.136-.18.317-.18.545 0 .315.117.554.35.716.233.159.53.238.89.238Zm9.407 1.01c-.633 0-1.179-.143-1.636-.43a2.853 2.853 0 0 1-1.049-1.198c-.244-.508-.366-1.09-.366-1.747 0-.665.125-1.251.375-1.76a2.87 2.87 0 0 1 1.057-1.197c.454-.287.99-.43 1.606-.43.497 0 .941.092 1.33.276.389.182.703.438.942.767.241.33.385.715.43 1.155h-1.24a1.481 1.481 0 0 0-.469-.792c-.241-.222-.565-.333-.971-.333-.356 0-.667.094-.934.281-.264.185-.47.45-.618.793-.147.341-.221.744-.221 1.21 0 .477.072.89.217 1.236.145.347.35.615.614.806.267.19.581.285.942.285.241 0 .46-.044.656-.132a1.33 1.33 0 0 0 .498-.388c.137-.168.232-.37.286-.605h1.24a2.405 2.405 0 0 1-.413 1.133c-.23.333-.539.594-.925.785-.384.19-.834.285-1.351.285Zm9.107-6.677v1.022h-3.575V9.455h3.575Zm-2.617-1.569h1.275v6.192c0 .247.037.433.11.558a.578.578 0 0 0 .286.252c.119.042.249.064.388.064.102 0 .191-.007.268-.022a6.69 6.69 0 0 0 .179-.034l.23 1.053a2.494 2.494 0 0 1-.826.136 2.244 2.244 0 0 1-.938-.179 1.606 1.606 0 0 1-.703-.58c-.179-.26-.269-.589-.269-.984V7.886Zm11.304-.613h1.598l2.779 6.784h.102l2.779-6.784h1.598V16h-1.253V9.685h-.081l-2.574 6.302h-1.04l-2.574-6.307h-.081V16h-1.253V7.273Zm15.489 8.86c-.645 0-1.201-.139-1.666-.414a2.8 2.8 0 0 1-1.074-1.172c-.25-.506-.375-1.098-.375-1.777 0-.67.125-1.261.375-1.773a2.91 2.91 0 0 1 1.057-1.197c.454-.287.985-.43 1.593-.43.37 0 .728.06 1.074.183.347.122.658.313.933.575.276.261.493.6.652 1.018.159.415.239.92.239 1.513v.452h-5.203v-.955h3.954c0-.335-.068-.632-.204-.89a1.552 1.552 0 0 0-.575-.618 1.612 1.612 0 0 0-.861-.226c-.358 0-.671.088-.938.264-.264.173-.468.4-.613.682a1.969 1.969 0 0 0-.213.908v.745c0 .438.076.81.23 1.117.156.307.373.541.652.703.278.159.603.239.976.239.241 0 .461-.034.66-.103a1.37 1.37 0 0 0 .848-.831l1.206.218c-.097.355-.27.666-.52.933-.247.264-.558.47-.933.618a3.492 3.492 0 0 1-1.274.217Z"/>
  <path fill="#8C8C8C" d="M0 12h44v2H0z"/>
</svg>
