<svg xmlns="http://www.w3.org/2000/svg" width="89" height="101" fill="none" viewBox="0 0 89 101">
  <path stroke="#0B94EB" stroke-linecap="round" stroke-linejoin="round" stroke-opacity=".5" stroke-width="1.663" d="M20.001 66.112c6.616-5.771 6.867-7.854 7.654-15.216.433-4.055 1.212-7.922 1.017-12.075-.348-7.427 1.392-16.843 9.621-20.572 16.193-7.337 36.911 14.67 25.756 26.462-4.246 4.488-10.212 7.064-15.089 11.066-1.956 1.605-3.326 3.543-5.676 4.905-2.254 1.306-5.055 2.932-5.639 5.14-.493 1.864-.451 4.462-2.504 5.682-2.837 1.686-1.733.725-5.04-.15-2.274-.601-5.238-2.962-6.755-4.643-1.083-1.2-2.439 1.084-1.81-1.295.54-2.042.898-.13-.75-.566M28.8 75.418c-4.212-2.286-16.027-8.026-13.942-4.24 2.514 4.569 4.486 3.134 8.552 5.037 2.078.974 2.754 7.032.305 6.508-3.497-.748-4.785-5.142-8.303-6.073-3.201-.847-3.88 2.65-2.283 4.375 2.11 2.278 5.482 1.321 6.526 4.276 1.65 4.67-5.545 2.079-7.39.596-1.858-1.494-3.475-3.486-4.802-4.739"/>
  <path stroke="#0B94EB" stroke-linecap="round" stroke-linejoin="round" stroke-opacity=".5" stroke-width="1.663" d="M20.297 64.996c-.022.315-.496 2.348.492 2.61.532.14.846-.058 1.274.29.503.411.878 1.162 1.33 1.664.4.441 1.84.781 2.01 1.246.28.759 1.098 1.35 1.928 1.652 1.076.392 1.365.95 2.595 1.048.375.03.461-.148.797-.059.519.137.69.399 1.175.148.537-.278 1.294-.275 1.66-.816.499-.735 1.653-.886-.022-.791m16.061-35.599c-1.885-.49-3.467-.803-4.54.656-.73.992-1.025 2.078-1.33 3.229-.295 1.118.309 2.24.03 3.292-.368 1.392-1.672.803-2.94.921-1.197.112-2.076.237-2.904.977-.82.731-.831 2.563-1.008 3.548-.151.848-.134 2.74-1.023 3.254-.483.28-2.729.316-1.14-.159m26.638 4.017c1.292 1.216 2.648 2.307 4.197 3.268.65.403 1.478 1.035 1.559.091m2.849-13.753c2.534 1.232 5.031 2.525 7.526 3.807.415.213-.356-.962-.386-1m-3.429-13.853c2.854.404 5.72.727 8.579 1.056 1.316.15 1.817.428 1.332-.638m-21.7-16.299c2.269.265 4.244.465 6.433.182 1.024-.133 2.034-.35 3.083-.398 1.245-.058 1.24.058.127-.905M44.9 6.041c-.8 1.737-.983 2.856-.516 4.745.251 1.019.366 2.252.353 3.276-.005.353-.008.554.2.875.078.12-.006-1.085-.026-1.272M26.869 9.076c.197 2.081.712 4.164.806 6.222.048 1.04-.156 1.05-.41-.058m-10.741 5.698c1.945 2.32 3.352 4.933 4.661 7.496.164.322.409.485.611.764.46.633-.267-.715-.35-.899"/>
</svg>
