<svg xmlns="http://www.w3.org/2000/svg" width="59" height="55" fill="none" viewBox="0 0 59 55">
  <path fill="#0B94EB" d="M.761 12.96c0-6.628 5.373-12 12-12h33.777c6.627 0 12 5.372 12 12v29.612c0 6.627-5.373 12-12 12H12.76c-6.627 0-12-5.373-12-12V12.959Z"/>
  <path stroke="#000" stroke-linecap="round" stroke-linejoin="round" stroke-width="1.5" d="M33.26 26.09c0 .889-.38 1.741-1.057 2.37a3.758 3.758 0 0 1-2.554.981 3.758 3.758 0 0 1-2.553-.981 3.233 3.233 0 0 1-1.058-2.37c0-.888.38-1.74 1.058-2.37a3.758 3.758 0 0 1 2.553-.98c.958 0 1.877.353 2.554.98a3.233 3.233 0 0 1 1.057 2.37v0Z"/>
  <path stroke="#000" stroke-linecap="round" stroke-linejoin="round" stroke-width="1.5" d="M38.677 26.09c0 7.977-9.028 12.566-9.028 12.566s-9.027-4.589-9.027-12.566c0-2.221.951-4.352 2.644-5.923 1.693-1.571 3.99-2.454 6.383-2.454 2.395 0 4.69.883 6.384 2.454 1.693 1.57 2.644 3.702 2.644 5.923v0Z"/>
</svg>
