<svg xmlns="http://www.w3.org/2000/svg" width="66" height="92" fill="none" viewBox="0 0 66 92">
  <path stroke="#0B94EB" stroke-linecap="round" stroke-linejoin="round" stroke-miterlimit="1.5" stroke-width="4.292" d="M40.014 3H25.712v8.456h14.302V3Z"/>
  <path stroke="#0B94EB" stroke-linecap="round" stroke-linejoin="round" stroke-miterlimit="1.5" stroke-width="4.278" d="m25.858 79.256 13.915.08-6.826 10.329-7.089-10.409Z" clip-rule="evenodd"/>
  <path stroke="#0B94EB" stroke-linecap="round" stroke-linejoin="round" stroke-miterlimit="1.5" stroke-width="4.29" d="M40 34.179v43.74H25.698v-43.42c.052.029.249-.21.313-.223.224-.044.158-.141.36-.237.32-.154.267-.136.34-.161.12-.042.155-.105.28-.156.1-.042.428-.202.52-.227.114-.03.419-.042.5-.126.038-.04-.264.06-.212.066.029.003 1.093-.272 1.301-.471.067-.064 3.744-.468 3.808-.54l3.196.28c.072.038 1.276.29 1.35.315.11.039.501.157.608.213.167.086.322.107.487.18.218.096.513.148.888.381.287.179.366.36.563.386Z" clip-rule="evenodd"/>
  <path stroke="#000" stroke-linecap="round" stroke-linejoin="round" stroke-miterlimit="1.5" stroke-width="4.29" d="M11.152 39.149a24.642 24.642 0 0 1 1.716-4.501L6.95 28.196 17.312 17.97l5.703 6.218c.856-.45 1.742-.845 2.654-1.183v-9.917h14.302v9.535a22.435 22.435 0 0 1 4.444 1.931l5.403-5.525 10.04 10.565-5.628 5.755a24.68 24.68 0 0 1 1.482 4.185l7.645.066-.12 14.835-8.25-.071a24.512 24.512 0 0 1-1.406 3.15l5.808 6.331-10.362 10.226-5.874-6.404c-1.022.5-2.085.924-3.182 1.264v8.69H25.67V68.55a22.446 22.446 0 0 1-2.717-1.217l-6.407 6.55-10.04-10.564 6.332-6.474a24.586 24.586 0 0 1-1.195-2.855L3 53.914l.12-14.835 8.032.07Z" clip-rule="evenodd"/>
  <path stroke="#0B94EB" stroke-linecap="round" stroke-linejoin="round" stroke-miterlimit="1.5" stroke-width="4.29" d="M25.73 58.332c-4-2.47-6.668-6.895-6.668-11.939 0-7.737 6.28-14.019 14.015-14.019 7.736 0 14.016 6.282 14.016 14.02 0 5.206-2.843 9.753-7.06 12.17v19.248H25.731v-19.48Z" clip-rule="evenodd"/>
</svg>
