<svg width="100%" height="100%" viewBox="0 0 622 401" version="1.1" xmlns="http://www.w3.org/2000/svg" xmlns:xlink="http://www.w3.org/1999/xlink" xml:space="preserve" xmlns:serif="http://www.serif.com/" style="fill-rule:evenodd;clip-rule:evenodd;stroke-linecap:round;stroke-linejoin:round;stroke-miterlimit:1.5;">
    <g>
        <g>
            <g transform="matrix(1.01014,0,0,1,-3.10397,0)">
                <rect x="278.632" y="32.247" width="55.042" height="31.691" style="fill:rgb(235,235,235);fill-opacity:0;stroke:rgb(11,148,235);stroke-width:4.27px;"/>
            </g>
            <g transform="matrix(1.1887,0,0,1.33167,62.5448,-126.32)">
                <path d="M182.028,333.679L227.536,333.904L205.213,362.97L182.028,333.679Z" style="fill:rgb(235,235,235);fill-opacity:0;stroke:rgb(11,148,235);stroke-width:3.4px;"/>
            </g>
            <path d="M333.897,149.094L333.897,313.016L278.3,313.016L278.3,150.293C278.501,150.403 279.266,149.506 279.515,149.459C280.388,149.293 280.131,148.93 280.913,148.569C282.158,147.995 281.953,148.062 282.24,147.966C282.705,147.811 282.842,147.574 283.324,147.381C283.714,147.225 284.989,146.624 285.35,146.533C285.792,146.423 286.975,146.375 287.289,146.061C287.438,145.912 286.266,146.288 286.467,146.307C286.58,146.317 290.715,145.288 291.526,144.541C291.785,144.302 306.08,142.787 306.327,142.521L318.752,143.569C319.034,143.711 323.712,144.653 323.999,144.749C324.431,144.893 325.949,145.337 326.366,145.545C327.013,145.869 327.616,145.948 328.258,146.22C329.107,146.579 330.251,146.776 331.709,147.65C332.826,148.319 333.132,149 333.897,149.094Z" style="fill:rgb(235,235,235);fill-opacity:0;stroke:rgb(11,148,235);stroke-width:4.29px;"/>
            <path d="M221.754,167.721C223.421,161.832 225.666,156.187 228.422,150.853L205.418,126.674L245.698,88.351L267.87,111.654C271.196,109.968 274.641,108.484 278.188,107.218L278.188,70.053L333.786,70.053L333.786,105.786C339.835,107.598 345.618,110.036 351.062,113.024L372.066,92.318L411.097,131.913L389.219,153.48C391.597,158.472 393.534,163.718 394.979,169.165L424.699,169.413L424.235,225.009L392.161,224.741C390.617,228.826 388.787,232.77 386.696,236.547L409.272,260.275L368.992,298.598L346.157,274.597C342.182,276.47 338.05,278.058 333.786,279.336L333.786,311.904L278.188,311.904L278.188,277.904C274.553,276.607 271.026,275.08 267.624,273.342L242.719,297.892L203.689,258.297L228.302,234.035C226.535,230.591 224.981,227.019 223.658,223.336L190.061,223.056L190.525,167.46L221.754,167.721Z" style="fill:rgb(235,235,235);fill-opacity:0;stroke:black;stroke-width:4.29px;"/>
            <path d="M278.427,239.613C262.874,230.357 252.501,213.773 252.501,194.871C252.501,165.873 276.915,142.331 306.987,142.331C337.058,142.331 361.472,165.873 361.472,194.871C361.472,214.382 350.419,231.423 334.027,240.485L334.027,312.619L278.427,312.619L278.427,239.613Z" style="fill:rgb(235,235,235);fill-opacity:0;stroke:rgb(11,148,235);stroke-width:4.29px;"/>
        </g>
    </g>
</svg>
