<svg xmlns="http://www.w3.org/2000/svg" width="59" height="55" fill="none" viewBox="0 0 59 55">
  <path fill="#0B94EB" d="M.761 12.418c0-6.628 5.373-12 12-12h33.777c6.627 0 12 5.372 12 12V42.03c0 6.627-5.373 12-12 12H12.76c-6.627 0-12-5.373-12-12V12.417Z"/>
  <path stroke="#000" stroke-linecap="round" stroke-linejoin="round" stroke-width="1.5" d="M41.385 21.36v11.727c0 .667-.285 1.306-.793 1.777a2.818 2.818 0 0 1-1.915.736H20.622a2.818 2.818 0 0 1-1.915-.736 2.425 2.425 0 0 1-.793-1.777V21.36m23.471 0c0-.666-.285-1.305-.793-1.777a2.819 2.819 0 0 0-1.915-.736H20.622a2.82 2.82 0 0 0-1.915.736 2.425 2.425 0 0 0-.793 1.777m23.471 0v.272c0 .429-.118.85-.343 1.226a2.615 2.615 0 0 1-.945.914l-9.027 5.154a2.867 2.867 0 0 1-1.42.374c-.502 0-.994-.13-1.42-.373l-9.028-5.154a2.608 2.608 0 0 1-.945-.914 2.373 2.373 0 0 1-.343-1.226v-.273"/>
</svg>
