<svg xmlns="http://www.w3.org/2000/svg" width="64" height="49" fill="none" viewBox="0 0 64 49">
  <path stroke="#0B94EB" stroke-linecap="round" stroke-linejoin="round" stroke-opacity=".5" stroke-width="1.663" d="M5.544 43.273c.894-1.137 2.608-3.241.206-3.614-.543-.084-1.05-.403-1.583-.161C2.525 40.242 1 41.88 1 43.828c0 3.11 3.412 3.784 5.89 3.744 4.182-.068 5.454-4.142 6.93-7.443 1.493-3.333 3.15-6.613 4.698-9.922 1.751-3.745 4.623-6.729 6.44-10.44.78-1.59 1.797-2.992 2.8-4.445 1.556-2.253 2.666-4.527 3.78-7.026.912-2.05 1.925-3.922 3.044-5.863.452-.784.282-1.987 1.147-1.148.657.637 1.702 1.056 2.586 1.218 3.864.707 7.418 1.456 11.398 1.14 4.025-.32 8.047-.897 12.01-1.664 1.346-.261.772.053.137.87-1.077 1.387-1.997 2.856-3.03 4.26-1.345 1.833-1.819 4.039-2.615 6.133-.876 2.302-1.918 4.501-2.754 6.841-1.617 4.523-3.975 8.647-6.892 12.443-1.691 2.2-3.78 6.041-6.946 5.885-4.9-.24-1.591-9.885.75-11.771 1.26-1.016 2.638.077 2.792 1.44.21 1.873-.431 4.44-2.25 5.355-1.917.965-3.388.85-1.912-1.641.893-1.508 1.424.151 1.79-.586"/>
</svg>
