<svg xmlns="http://www.w3.org/2000/svg" width="135" height="24" fill="none" viewBox="0 0 135 24">
  <path fill="#656D72" d="M56.959 7.273h1.598l2.778 6.784h.102l2.779-6.784h1.598V16H64.56V9.685h-.08l-2.575 6.302h-1.04L58.294 9.68h-.081V16H56.96V7.273ZM70.43 18.454a2.69 2.69 0 0 1-.52-.046 1.634 1.634 0 0 1-.349-.094l.307-1.044c.233.062.44.09.622.08a.746.746 0 0 0 .482-.204c.142-.128.267-.336.375-.626l.157-.435-2.395-6.63h1.364l1.658 5.08h.068l1.658-5.08h1.367l-2.697 7.419a2.96 2.96 0 0 1-.477.865 1.852 1.852 0 0 1-.69.537 2.27 2.27 0 0 1-.93.178Zm18.03-8.889a1.245 1.245 0 0 0-.563-.937c-.33-.225-.744-.337-1.244-.337-.358 0-.667.057-.929.17a1.43 1.43 0 0 0-.61.46 1.086 1.086 0 0 0-.212.661c0 .208.048.387.145.537.099.15.228.277.387.38.162.099.336.183.52.251.185.065.362.12.533.162l.852.221a6.5 6.5 0 0 1 .857.278c.292.116.564.27.814.46s.451.426.605.707c.156.281.234.618.234 1.01 0 .494-.128.933-.383 1.317-.253.383-.621.686-1.104.908-.48.221-1.061.332-1.743.332-.653 0-1.219-.104-1.696-.311a2.621 2.621 0 0 1-1.12-.882c-.27-.384-.42-.838-.448-1.364h1.32c.026.315.129.578.308.788.181.208.413.363.694.465.284.1.595.15.934.15.372 0 .703-.06.992-.176.293-.119.523-.284.69-.494a1.17 1.17 0 0 0 .252-.746.916.916 0 0 0-.221-.635 1.639 1.639 0 0 0-.593-.409 5.794 5.794 0 0 0-.84-.285l-1.03-.282c-.7-.19-1.253-.47-1.662-.839-.407-.37-.61-.858-.61-1.466 0-.503.137-.942.41-1.317a2.686 2.686 0 0 1 1.107-.873 3.8 3.8 0 0 1 1.577-.316c.59 0 1.112.104 1.564.311.454.208.812.493 1.074.857.261.36.397.776.409 1.244h-1.27Zm6.032 4.215-.008-1.556h.221l2.608-2.77h1.526l-2.975 3.154h-.2l-1.172 1.172ZM93.321 16V7.273h1.275V16H93.32Zm4.134 0-2.344-3.11.878-.891L99.019 16h-1.564ZM102 16V9.455h1.274V16H102Zm.644-7.555a.81.81 0 0 1-.571-.222.718.718 0 0 1-.235-.537c0-.21.078-.39.235-.537a.8.8 0 0 1 .571-.226c.221 0 .41.076.566.226a.707.707 0 0 1 .239.537c0 .207-.08.386-.239.537a.794.794 0 0 1-.566.222Zm5.618-1.172V16h-1.274V7.273h1.274Zm4.989 0V16h-1.274V7.273h1.274Zm8.619 3.78-1.155.204a1.364 1.364 0 0 0-.23-.422 1.139 1.139 0 0 0-.418-.328 1.51 1.51 0 0 0-.66-.128c-.361 0-.662.081-.904.243-.241.16-.362.365-.362.618a.65.65 0 0 0 .243.528c.162.134.423.243.784.329l1.04.238c.602.14 1.051.354 1.346.644.296.29.444.666.444 1.129 0 .392-.114.741-.341 1.048-.225.304-.539.543-.942.716-.401.174-.865.26-1.394.26-.733 0-1.331-.156-1.794-.469-.463-.315-.747-.762-.852-1.342l1.232-.188c.076.322.234.564.473.73.238.161.549.242.933.242.418 0 .751-.087 1.001-.26.25-.176.375-.39.375-.643a.667.667 0 0 0-.23-.516c-.15-.14-.382-.244-.694-.315l-1.108-.243c-.611-.14-1.063-.361-1.355-.665-.29-.304-.435-.689-.435-1.155 0-.386.108-.724.324-1.014a2.12 2.12 0 0 1 .895-.678 3.26 3.26 0 0 1 1.308-.247c.707 0 1.264.154 1.67.46.407.304.675.712.806 1.224Z"/>
  <path fill="#8C8C8C" d="M0 12h44v2H0z"/>
</svg>
