<svg xmlns="http://www.w3.org/2000/svg" width="136" height="24" fill="none" viewBox="0 0 136 24">
  <path fill="#D9D9D9" d="M0 1h16v2H0z"/>
  <path fill="#656D72" d="M72.959 16V7.273h3.11c.68 0 1.242.123 1.688.37.446.248.78.586 1.001 1.015.222.426.333.906.333 1.44 0 .537-.112 1.02-.337 1.449a2.436 2.436 0 0 1-1.005 1.014c-.446.247-1.007.37-1.684.37h-2.139v-1.116h2.02c.429 0 .777-.073 1.044-.221.267-.15.463-.355.588-.614.125-.258.188-.552.188-.882 0-.33-.063-.622-.188-.878a1.345 1.345 0 0 0-.592-.6c-.267-.146-.62-.218-1.057-.218h-1.653V16h-1.317Zm9.573 0V9.455h1.232v1.04h.068c.12-.353.33-.63.63-.832a1.805 1.805 0 0 1 1.032-.306 5.436 5.436 0 0 1 .541.03v1.218a2.299 2.299 0 0 0-.273-.047c-.13-.02-.26-.03-.392-.03-.3 0-.57.064-.805.192a1.425 1.425 0 0 0-.758 1.283V16h-1.275Zm9.129.132c-.614 0-1.15-.14-1.607-.422a2.845 2.845 0 0 1-1.065-1.18c-.253-.506-.38-1.097-.38-1.773 0-.679.127-1.273.38-1.781a2.839 2.839 0 0 1 1.065-1.185c.457-.281.993-.422 1.606-.422.614 0 1.15.14 1.607.422.457.281.813.676 1.065 1.185.253.508.38 1.102.38 1.781 0 .676-.127 1.267-.38 1.773a2.836 2.836 0 0 1-1.065 1.18c-.457.281-.993.422-1.606.422Zm.004-1.07c.397 0 .727-.105.988-.315.262-.21.455-.49.58-.84a3.34 3.34 0 0 0 .192-1.154c0-.418-.064-.801-.192-1.15a1.874 1.874 0 0 0-.58-.849c-.261-.213-.59-.32-.988-.32-.4 0-.733.107-.997.32a1.904 1.904 0 0 0-.584.848c-.125.35-.188.733-.188 1.15 0 .421.063.806.188 1.156.128.35.322.629.584.84.264.21.596.315.997.315Zm6.469-5.607h1.274v6.971c0 .438-.08.807-.239 1.108-.156.301-.389.53-.698.686-.307.156-.687.235-1.138.235h-.128a1.99 1.99 0 0 1-.132-.005v-1.095h.204c.302 0 .519-.08.652-.243.137-.159.205-.39.205-.694V9.455Zm.63-1.01a.81.81 0 0 1-.57-.222.72.72 0 0 1-.235-.537c0-.21.078-.39.234-.537.16-.15.35-.226.572-.226.221 0 .41.076.566.226.16.148.239.327.239.537 0 .207-.08.386-.239.537a.795.795 0 0 1-.566.222Zm7.179 7.687c-.645 0-1.2-.138-1.666-.413a2.806 2.806 0 0 1-1.074-1.172c-.25-.506-.375-1.098-.375-1.777 0-.67.125-1.261.375-1.773A2.91 2.91 0 0 1 104.26 9.8c.454-.287.986-.43 1.594-.43.369 0 .727.06 1.074.183.346.122.657.313.933.575.275.261.493.6.652 1.018.159.415.238.92.238 1.513v.452h-5.203v-.955h3.955a1.87 1.87 0 0 0-.205-.89 1.545 1.545 0 0 0-.575-.618 1.607 1.607 0 0 0-.861-.226c-.358 0-.67.088-.937.264a1.77 1.77 0 0 0-.614.682 1.969 1.969 0 0 0-.213.908v.745c0 .438.077.81.23 1.117.156.307.374.541.652.703.279.159.604.239.976.239a2 2 0 0 0 .66-.103 1.359 1.359 0 0 0 .848-.831l1.206.218a2.177 2.177 0 0 1-.519.933 2.53 2.53 0 0 1-.934.618 3.492 3.492 0 0 1-1.274.217Zm8.979 0c-.633 0-1.179-.143-1.636-.43a2.844 2.844 0 0 1-1.048-1.198c-.245-.508-.367-1.09-.367-1.747 0-.665.125-1.251.375-1.76a2.87 2.87 0 0 1 1.057-1.197c.454-.287.99-.43 1.606-.43.498 0 .941.092 1.33.276.389.182.703.438.942.767.241.33.385.715.43 1.155h-1.24a1.481 1.481 0 0 0-.469-.792c-.241-.222-.565-.333-.971-.333-.355 0-.666.094-.933.281a1.798 1.798 0 0 0-.618.793c-.148.341-.222.744-.222 1.21 0 .477.072.89.217 1.236.145.347.35.615.614.806.267.19.581.285.942.285.241 0 .46-.044.656-.132.199-.091.365-.22.499-.388a1.47 1.47 0 0 0 .285-.605h1.24a2.405 2.405 0 0 1-.413 1.133c-.23.333-.539.594-.925.785-.383.19-.834.285-1.351.285Zm9.107-6.677v1.022h-3.575V9.455h3.575Zm-2.616-1.569h1.274v6.192c0 .247.037.433.111.558a.576.576 0 0 0 .285.252c.119.042.249.064.388.064.102 0 .192-.007.268-.022a6.69 6.69 0 0 0 .179-.034l.23 1.053a2.494 2.494 0 0 1-.826.136 2.247 2.247 0 0 1-.938-.179 1.606 1.606 0 0 1-.703-.58c-.179-.26-.268-.589-.268-.984V7.886Zm10.825 3.167-1.155.204a1.364 1.364 0 0 0-.23-.422 1.13 1.13 0 0 0-.418-.328 1.51 1.51 0 0 0-.66-.128c-.361 0-.662.081-.904.243-.241.16-.362.365-.362.618a.65.65 0 0 0 .243.528c.162.134.423.243.784.329l1.04.238c.602.14 1.051.354 1.347.644.295.29.443.666.443 1.129 0 .392-.114.741-.341 1.048-.225.304-.538.543-.942.716-.4.174-.865.26-1.393.26-.733 0-1.331-.156-1.794-.469-.463-.315-.748-.762-.853-1.342l1.232-.188c.077.322.234.564.473.73.239.161.55.242.933.242.418 0 .752-.087 1.002-.26.25-.176.375-.39.375-.643a.668.668 0 0 0-.231-.516c-.15-.14-.382-.244-.694-.315l-1.108-.243c-.611-.14-1.063-.361-1.355-.665-.29-.304-.435-.689-.435-1.155 0-.386.108-.724.324-1.014a2.12 2.12 0 0 1 .895-.678 3.267 3.267 0 0 1 1.308-.247c.707 0 1.264.154 1.671.46.406.304.674.712.805 1.224Z"/>
  <path fill="#8C8C8C" d="M16 12h44v2H16z"/>
</svg>
