<svg xmlns="http://www.w3.org/2000/svg" width="109" height="23" fill="none" viewBox="0 0 109 23">
  <path fill="#000" d="M9.717 7.636c-.072-.859-.423-1.554-1.053-2.085-.625-.53-1.435-.796-2.429-.796-.67 0-1.266.124-1.788.371-.522.248-.931.585-1.228 1.012a2.515 2.515 0 0 0-.445 1.471c0 .356.067.677.202.965a2.5 2.5 0 0 0 .587.763c.252.22.551.413.897.58.347.166.73.313 1.148.438l1.51.446c.518.157.995.34 1.431.546.441.207.823.455 1.147.742.329.284.583.617.763 1 .184.381.276.822.276 1.322 0 .728-.189 1.38-.566 1.956-.374.576-.907 1.03-1.6 1.363-.688.328-1.5.493-2.435.493-.89 0-1.667-.151-2.328-.452-.657-.302-1.176-.72-1.559-1.255a3.593 3.593 0 0 1-.647-1.863h.863c.045.572.227 1.066.547 1.485.324.414.753.733 1.289.958.535.225 1.147.337 1.835.337.742 0 1.396-.126 1.963-.378.567-.256 1.01-.611 1.33-1.066.319-.454.478-.982.478-1.585 0-.486-.114-.902-.344-1.248-.23-.347-.569-.646-1.018-.898-.446-.252-.999-.477-1.66-.674l-1.613-.486c-1.08-.329-1.905-.776-2.476-1.343-.567-.567-.85-1.273-.85-2.119 0-.71.189-1.34.567-1.889a3.86 3.86 0 0 1 1.538-1.302c.652-.315 1.388-.472 2.206-.472.823 0 1.55.16 2.18.479.63.315 1.129.749 1.497 1.302.37.549.574 1.176.614 1.882h-.83Zm8.103 10.58c-.936 0-1.75-.232-2.443-.695-.692-.463-1.228-1.098-1.605-1.903-.378-.805-.567-1.723-.567-2.753 0-1.034.189-1.956.567-2.766.382-.81.906-1.448 1.572-1.916.665-.468 1.426-.702 2.28-.702.58 0 1.13.117 1.646.351.522.23.981.562 1.377.999.4.436.713.962.938 1.578.23.617.344 1.31.344 2.079V13h-8.205v-.749h7.382c0-.75-.153-1.428-.46-2.03A3.735 3.735 0 0 0 19.4 8.782a3.1 3.1 0 0 0-1.775-.533 3.09 3.09 0 0 0-1.842.58c-.535.383-.96.9-1.275 1.553-.31.652-.472 1.38-.486 2.186v.337c0 .864.15 1.64.452 2.328.306.683.742 1.225 1.31 1.626.566.396 1.245.593 2.037.593.567 0 1.05-.094 1.45-.283a3.24 3.24 0 0 0 .992-.702c.257-.274.45-.54.58-.796l.75.304a3.784 3.784 0 0 1-.736 1.039 3.99 3.99 0 0 1-1.255.857c-.504.23-1.097.344-1.781.344Zm10.984 0c-.935 0-1.75-.232-2.442-.695-.693-.463-1.228-1.098-1.606-1.903-.378-.805-.567-1.723-.567-2.753 0-1.034.19-1.956.567-2.766.382-.81.906-1.448 1.572-1.916.666-.468 1.426-.702 2.28-.702.58 0 1.13.117 1.647.351.522.23.98.562 1.376.999.4.436.713.962.938 1.578.23.617.344 1.31.344 2.079V13H24.71v-.749h7.381c0-.75-.153-1.428-.459-2.03a3.736 3.736 0 0 0-1.248-1.438 3.1 3.1 0 0 0-1.774-.533c-.689 0-1.303.194-1.842.58-.536.383-.96.9-1.276 1.553-.31.652-.472 1.38-.485 2.186v.337c0 .864.15 1.64.452 2.328.306.683.742 1.225 1.309 1.626.566.396 1.246.593 2.037.593.567 0 1.05-.094 1.45-.283.406-.193.736-.427.993-.702.256-.274.45-.54.58-.796l.749.304c-.157.346-.403.693-.736 1.039a3.99 3.99 0 0 1-1.255.857c-.503.23-1.097.344-1.78.344ZM41.091 18V7.636h.803v1.566h.08c.199-.522.54-.936 1.026-1.242.486-.306 1.07-.459 1.755-.459.75 0 1.356.18 1.814.54.464.36.797.848 1 1.464h.073a2.82 2.82 0 0 1 1.087-1.457c.526-.364 1.174-.547 1.943-.547 1.003 0 1.768.318 2.294.952.53.63.796 1.493.796 2.59V18h-.823v-6.956c0-.864-.207-1.543-.62-2.038-.415-.495-1.022-.742-1.823-.742-.854 0-1.511.267-1.97.803-.459.535-.688 1.216-.688 2.044V18h-.823v-7.01c0-.806-.203-1.46-.607-1.964-.405-.508-1.013-.762-1.822-.762-.549 0-1.023.126-1.424.378a2.56 2.56 0 0 0-.924 1.039c-.216.44-.324.947-.324 1.518V18h-.823Zm19.94.216c-.855 0-1.615-.23-2.281-.688-.666-.464-1.19-1.1-1.572-1.91-.383-.81-.574-1.732-.574-2.766 0-1.04.191-1.961.574-2.766.382-.81.906-1.447 1.572-1.91.666-.463 1.426-.695 2.28-.695.855 0 1.615.232 2.28.695.667.463 1.19 1.1 1.573 1.91.382.81.574 1.731.574 2.766 0 1.034-.192 1.957-.574 2.766-.382.81-.906 1.446-1.572 1.91-.666.459-1.426.688-2.28.688Zm0-.763c.724 0 1.355-.204 1.895-.613.545-.41.965-.963 1.262-1.66.301-.697.452-1.473.452-2.328 0-.855-.15-1.628-.452-2.321-.301-.697-.722-1.25-1.262-1.66-.54-.414-1.171-.62-1.896-.62-.724 0-1.356.206-1.896.62-.54.41-.96.963-1.261 1.66-.302.693-.452 1.466-.452 2.32 0 .856.148 1.631.445 2.329.301.697.722 1.25 1.262 1.66.544.409 1.178.613 1.902.613Zm7.261.547V7.636h.803v1.62h.074c.225-.531.605-.956 1.14-1.276.536-.323 1.145-.485 1.829-.485h.216c.072 0 .14.002.202.006v.83a5.925 5.925 0 0 1-.195-.02 1.5 1.5 0 0 0-.27-.02c-.576 0-1.089.124-1.539.37-.445.248-.796.59-1.052 1.027-.257.431-.385.926-.385 1.484V18h-.823Zm10.202.216c-.936 0-1.75-.232-2.443-.695-.692-.463-1.228-1.098-1.606-1.903-.377-.805-.566-1.723-.566-2.753 0-1.034.189-1.956.566-2.766.383-.81.907-1.448 1.573-1.916.665-.468 1.425-.702 2.28-.702.58 0 1.13.117 1.646.351.522.23.98.562 1.377.999.4.436.713.962.938 1.578.229.617.344 1.31.344 2.079V13h-8.205v-.749h7.382c0-.75-.153-1.428-.46-2.03a3.736 3.736 0 0 0-1.247-1.438 3.099 3.099 0 0 0-1.775-.533 3.09 3.09 0 0 0-1.842.58c-.535.383-.96.9-1.275 1.553-.31.652-.472 1.38-.486 2.186v.337c0 .864.15 1.64.452 2.328.306.683.742 1.225 1.31 1.626.566.396 1.245.593 2.037.593.567 0 1.05-.094 1.45-.283a3.24 3.24 0 0 0 .992-.702c.257-.274.45-.54.58-.796l.75.304a3.787 3.787 0 0 1-.736 1.039 3.99 3.99 0 0 1-1.255.857c-.504.23-1.098.344-1.781.344Z"/>
  <path stroke="#030303" stroke-linecap="round" stroke-linejoin="round" d="m93 7 7.5 11L108 7"/>
</svg>
