<svg xmlns="http://www.w3.org/2000/svg" width="21" height="127" fill="none" viewBox="0 0 21 127">
  <rect width="5.815" height="5.396" x="14.538" y="67.45" fill="#FF0202" rx="2"/>
  <rect width="5.815" height="5.396" x="14.538" y="94.431" fill="#FF0202" rx="2"/>
  <rect width="5.815" height="5.396" x="14.538" y="80.94" fill="#FF0202" rx="2"/>
  <rect width="5.815" height="5.396" x="14.538" y="107.921" fill="#FF0202" rx="2"/>
  <rect width="5.815" height="5.396" x="14.538" y="121.411" fill="#FF0202" rx="2"/>
  <rect width="5.815" height="5.396" y="67.45" fill="#FF0202" rx="2"/>
  <rect width="5.815" height="5.396" y="94.431" fill="#FF0202" rx="2"/>
  <rect width="5.815" height="5.396" y="80.94" fill="#FF0202" rx="2"/>
  <rect width="5.815" height="5.396" y="107.921" fill="#FF0202" rx="2"/>
  <rect width="5.815" height="5.396" y="121.411" fill="#FF0202" rx="2"/>
  <rect width="5.815" height="5.396" x="14.538" fill="#0DB760" rx="2"/>
  <rect width="5.815" height="5.396" x="14.538" y="26.98" fill="#0DB760" rx="2"/>
  <rect width="5.815" height="5.396" x="14.538" y="13.49" fill="#0DB760" rx="2"/>
  <rect width="5.815" height="5.396" x="14.538" y="40.47" fill="#0DB760" rx="2"/>
  <rect width="5.815" height="5.396" x="14.538" y="53.96" fill="#0DB760" rx="2"/>
  <rect width="5.815" height="5.396" fill="#0DB760" rx="2"/>
  <rect width="5.815" height="5.396" y="26.98" fill="#0DB760" rx="2"/>
  <rect width="5.815" height="5.396" y="13.49" fill="#0DB760" rx="2"/>
  <rect width="5.815" height="5.396" y="40.47" fill="#0DB760" rx="2"/>
  <rect width="5.815" height="5.396" y="53.96" fill="#0DB760" rx="2"/>
</svg>
