<svg xmlns="http://www.w3.org/2000/svg" width="35" height="33" fill="none" viewBox="0 0 35 33">
  <path fill="#0B94EB" fill-rule="evenodd" d="M27.892 32.004h-5.21V17.653c0-1.636-.42-2.94-1.257-3.914-.786-.913-1.826-1.398-3.12-1.455a6.469 6.469 0 0 0-.258-.005c-1.284 0-2.394.445-3.33 1.336-.801.763-1.26 1.647-1.374 2.653-.02.168-.03.34-.03.515 0 1.284.425 2.34 1.274 3.168.848.829 1.925 1.243 3.231 1.243 1.066 0 2.056-.27 2.97-.808v12.021c-1 .166-1.915.249-2.741.249-4.897 0-8.976-1.533-12.24-4.598-2.783-2.612-4.38-5.79-4.79-9.532a18.237 18.237 0 0 1-.106-1.991c0-3.787 1.17-7.088 3.51-9.904.87.08 1.737-.116 2.6-.59 1.112-.612 1.84-1.526 2.182-2.742a4.84 4.84 0 0 0 .153-.782C11.88 1.115 14.722.414 17.883.414c1.418 0 2.755.106 4.01.318 3.41.576 6.224 1.935 8.443 4.077 3.035 2.93 4.553 6.932 4.553 12.005v15.19h-5.272v-6.605c.611-.299 1.03-.905 1.03-1.604 0-.995-.848-1.802-1.893-1.802s-1.893.807-1.893 1.802c0 .698.42 1.305 1.031 1.604v6.605Z" clip-rule="evenodd"/>
</svg>
