<svg xmlns="http://www.w3.org/2000/svg" width="152" height="57" fill="none" viewBox="0 0 152 57">
  <g clip-path="url(#a)">
    <path fill="#414141" fill-rule="evenodd" d="M27.284 16.497c.1-.925-.1-1.802-.603-2.63-.674-1.112-1.597-1.824-2.767-2.138-1.17-.313-2.32-.16-3.45.462a5.402 5.402 0 0 0-2.15 2.112L12 3.893a16.1 16.1 0 0 1 2.244-1.52C18.483.043 22.822-.57 27.258.53c4.438 1.101 7.87 3.652 10.295 7.651 1.286 2.12 2.042 4.297 2.268 6.531a24.038 24.038 0 0 0-4.01-.319c-3.162 0-6.004.701-8.527 2.104Z" clip-rule="evenodd"/>
    <path fill="#0B94EB" fill-rule="evenodd" d="M46.892 47.004h-5.21V32.653c0-1.636-.42-2.94-1.257-3.914-.786-.913-1.826-1.398-3.12-1.454a6.469 6.469 0 0 0-.258-.006c-1.284 0-2.394.445-3.33 1.336-.801.763-1.26 1.647-1.374 2.653-.02.168-.03.34-.03.515 0 1.284.425 2.34 1.274 3.168.848.829 1.925 1.243 3.231 1.243 1.066 0 2.056-.27 2.97-.808v12.021c-1 .166-1.915.249-2.741.249-4.897 0-8.976-1.533-12.24-4.597-2.783-2.613-4.38-5.79-4.79-9.533a18.227 18.227 0 0 1-.106-1.991c0-3.787 1.17-7.088 3.51-9.904.87.08 1.737-.116 2.6-.59 1.112-.612 1.84-1.526 2.182-2.742a4.84 4.84 0 0 0 .153-.782c2.523-1.402 5.366-2.103 8.527-2.103 1.418 0 2.755.106 4.01.318 3.41.576 6.224 1.935 8.443 4.077 3.035 2.93 4.553 6.932 4.553 12.005v15.19h-5.272v-6.605c.611-.299 1.03-.906 1.03-1.604 0-.995-.848-1.802-1.893-1.802-1.044 0-1.893.807-1.893 1.802 0 .698.42 1.305 1.031 1.604v6.605Z" clip-rule="evenodd"/>
    <path fill="#414141" fill-rule="evenodd" d="M106.181 3.138h5.254v12.953c2.068-1.429 4.135-2.143 6.202-2.143 3.134 0 5.619 1.077 7.458 3.23.403.473.762.981 1.077 1.526-3.25 3.115-4.876 6.903-4.876 11.365 0 4.618 1.632 8.46 4.897 11.524.531.5 1.085.958 1.66 1.376v2.569h-12.207v-16.37c0-1.325-.147-2.215-.441-2.671-.293-.456-.865-.683-1.713-.683-1.371 0-2.057.963-2.057 2.889v16.835H99.228v-42.4h5.229v7.257c-.612.3-1.031.905-1.031 1.604 0 .995.848 1.802 1.893 1.802s1.893-.807 1.893-1.802c0-.699-.419-1.305-1.031-1.604V3.138ZM74.98 57h-5.22V31.156c0-4.742 1.306-8.604 3.917-11.586 1.502-1.719 3.411-3.085 5.729-4.1 2.317-1.015 4.695-1.522 7.132-1.522 3.912 0 7.33 1.01 10.252 3.029v26.149c-2.842 2.043-6.075 3.064-9.698 3.064-.74 0-1.827-.072-3.263-.217V33.175c1 .767 2.002 1.15 3.002 1.15 1.263 0 2.345-.446 3.248-1.336.903-.89 1.355-1.947 1.355-3.168 0-1.222-.468-2.263-1.404-3.122-.935-.86-2.056-1.29-3.362-1.29-3.133 0-4.7 2.061-4.7 6.182V57h-5.263v-5.7c.612-.298 1.03-.904 1.03-1.603 0-.995-.848-1.802-1.893-1.802-1.044 0-1.893.807-1.893 1.802 0 .698.42 1.305 1.031 1.604V57Z" clip-rule="evenodd"/>
    <path fill="#414141" fill-rule="evenodd" d="M146.546 42.926h-4.596V31.112c0-1.347-.345-2.421-1.034-3.222-.69-.801-1.617-1.202-2.781-1.202a3.84 3.84 0 0 0-2.741 1.1c-.77.733-1.155 1.602-1.155 2.608 0 1.057.349 1.926 1.048 2.608.698.682 1.585 1.023 2.66 1.023.877 0 1.693-.222 2.445-.665v9.896c-.824.136-1.577.205-2.257.205-3.374 0-6.277-.884-8.71-2.652a14.245 14.245 0 0 1-1.367-1.133c-2.687-2.523-4.03-5.685-4.03-9.487 0-3.673 1.338-6.792 4.014-9.356l.057-.054c2.714-2.574 6.014-3.861 9.901-3.861 4.335 0 7.753 1.206 10.251 3.618C150.75 22.95 152 26.244 152 30.421v12.505h-3.729v-7.021c.612-.299 1.031-.905 1.031-1.604 0-.995-.848-1.802-1.893-1.802s-1.893.807-1.893 1.802c0 .699.419 1.305 1.03 1.604v7.02Z" clip-rule="evenodd"/>
    <path fill="#414141" d="M61.407 45.538h-5.241v-42.4h5.241v7.257c-.612.3-1.03.905-1.03 1.604 0 .995.847 1.802 1.892 1.802s1.893-.807 1.893-1.802c0-.699-.419-1.305-1.03-1.604V3.138h5.24v42.4h-5.24V38.28c.611-.299 1.03-.905 1.03-1.604 0-.995-.848-1.802-1.893-1.802-1.044 0-1.893.807-1.893 1.802 0 .699.42 1.305 1.031 1.604v7.257Z"/>
    <path fill="#414141" fill-rule="evenodd" d="m5.771 7.78 4.8-2.637 7.54 12.428c.86 1.417 1.909 2.348 3.145 2.792.365.131.73.213 1.093.247-2.34 2.817-3.51 6.118-3.51 9.904 0 .681.035 1.345.106 1.992a13.7 13.7 0 0 1-.714-.17c-4.168-1.092-7.585-3.836-10.25-8.23L0 10.952l4.278-2.35 3.414 5.628a1.73 1.73 0 0 0-.05 1.88c.522.86 1.681 1.156 2.586.659.905-.498 1.216-1.6.693-2.461-.367-.605-1.048-.931-1.735-.899L5.77 7.781Z" clip-rule="evenodd"/>
    <path fill="#0B94EB" fill-rule="evenodd" d="M23.422 21.63c.437-.525.915-1.034 1.433-1.526a17.289 17.289 0 0 1 3.501-2.587 4.84 4.84 0 0 1-.153.782c-.343 1.216-1.07 2.13-2.182 2.741-.863.475-1.73.671-2.6.59Z" clip-rule="evenodd"/>
  </g>
  <defs>
    <clipPath id="a">
      <path fill="#fff" d="M0 0h152v57H0z"/>
    </clipPath>
  </defs>
</svg>
